<svg width="290px" height="164px" viewBox="0 0 290 164" version="1.1" xmlns="http://www.w3.org/2000/svg" xmlns:xlink="http://www.w3.org/1999/xlink">
    <g id="Trustmarks" stroke="none" stroke-width="1" fill="none" fill-rule="evenodd" fill-opacity="0.6">
        <g id="Grey" transform="translate(-3.000000, -695.000000)" fill="#0C121C" fill-rule="nonzero">
            <g id="Amc_logo-Copy" transform="translate(0.000000, 690.000000)">
                <g id="g146919" transform="translate(151.008678, 87.836729) scale(-1, 1) rotate(-180.000000) translate(-151.008678, -87.836729) translate(111.302516, 53.093838)">
                    <path d="M49.6327019,69.4857826 C49.6327019,69.4857826 38.2370335,26.6924671 37.2840856,22.1262585 L24.8560571,69.4857826 L1.34008295,69.4857826 L1.34008295,3.79193842 L16.7361471,3.79193842 L16.7361471,52.1044104 L30.2064624,3.79193842 L44.4014151,3.79193842 C44.4014151,3.79193842 57.5243015,50.5856497 57.8518773,51.9952185 L57.8518773,3.79193842 L73.3075007,3.79193842 L73.3075007,69.4857826 L49.6327019,69.4857826 Z" id="path146921"></path>
                </g>
                <g id="g146923" transform="translate(73.942089, 83.784663) scale(-1, 1) rotate(-180.000000) translate(-73.942089, -83.784663) translate(39.199198, 44.078502)">
                    <path d="M49.6327019,29.7796211 C49.6327019,27.8340192 49.6327019,25.9082704 48.7194602,23.972595 C47.0319483,20.0913177 41.4532326,16.4681305 33.5417799,16.4681305 C27.3178391,16.4681305 23.0295737,19.049031 23.0295737,24.10164 C23.0295737,30.9310998 29.4718984,32.4697136 35.0506141,33.1744979 C42.0686781,34.0381069 49.6327019,34.296197 49.6327019,34.296197 L49.6327019,29.7796211 Z M65.1975172,15.1876068 L65.1975172,49.4242445 C65.1975172,56.4026024 65.0684722,62.4776451 57.405183,67.123266 C51.7073488,70.4883632 44.1830312,71.2626333 37.9392373,71.2626333 C33.7899434,71.2626333 18.3640997,71.2626333 12.1203058,60.0158631 C10.1052181,56.3529697 9.80742189,53.6827303 9.5394053,50.5558701 L9.5394053,50.536017 L25.4913557,50.5558701 C25.5112088,51.9952185 25.7097396,53.474273 27.0498225,55.1121522 C28.6182159,57.1768726 32.1024316,59.241593 38.6043155,59.241593 C51.3996261,59.241593 49.5135834,46.3966497 49.5135834,46.3966497 C49.5135834,46.3966497 43.1208914,46.3172374 29.5116045,44.6396521 C23.2281045,43.8653819 13.3015641,41.4135264 8.62616359,32.1123581 C7.30593372,29.5116045 6.53166357,26.543569 6.53166357,23.3273699 C6.53166357,12.2096447 15.376211,3.15663984 30.0277846,3.15663984 C38.9715975,3.15663984 45.8705431,6.9088721 49.2257137,9.74786265 C49.2257137,8.84454747 49.4937303,6.25372044 49.6327019,4.70518014 L65.4754603,4.70518014 C65.1975172,15.1876068 65.1975172,10.2739693 65.1975172,15.1876068 L65.1975172,15.1876068 Z" id="path146925"></path>
                </g>
                <g id="g146927" transform="translate(218.225366, 83.344398) scale(-1, 1) rotate(-180.000000) translate(-218.225366, -83.344398) translate(183.482475, 43.638237)">
                    <path d="M69.4857826,29.7796211 L54.3875147,29.759768 C53.9209673,27.9432112 50.774254,16.0909219 39.0113037,16.0909219 C38.852479,16.0909219 36.9763629,16.0909219 36.7778321,16.1008485 C28.1318154,16.3688651 21.0541921,23.5358272 21.0541921,37.6712207 C21.0541921,48.5209293 26.5038628,58.268792 36.9168037,58.5169555 L39.0113037,58.5169555 C49.7716734,58.5169555 53.5536853,47.2999649 53.7819957,46.6150336 L68.850484,46.5654009 C65.9221546,60.5717494 54.9235479,72.0071239 38.2668131,72.0071239 C19.5850642,72.0071239 6.30335314,56.6507659 6.30335314,37.2046733 C6.30335314,14.9592963 20.4188935,2.32281045 37.8796781,2.32281045 C57.3456237,2.32281045 67.4309888,17.1431352 69.4857826,29.7796211" id="path146929"></path>
                </g>
                <path d="M277.826024,154.214763 L18.5151031,154.214763 L18.5151031,19.2534957 L277.826024,19.2534957 L277.826024,154.214763 Z M3.91304865,168.260865 L292.17028,168.260865 L292.17028,5.21738627 L3.91304865,5.21738627 L3.91304865,168.260865 Z" id="path146931"></path>
            </g>
        </g>
    </g>
</svg>