<svg width="300px" height="120px" viewBox="0 0 300 120" version="1.1" xmlns="http://www.w3.org/2000/svg" xmlns:xlink="http://www.w3.org/1999/xlink">
    <g id="Trustmarks" stroke="none" stroke-width="1" fill="none" fill-rule="evenodd" fill-opacity="0.6">
        <g id="Grey" fill="#0C121C" fill-rule="nonzero">
            <g id="AOL_logo-Copy">
                <path d="M165.475082,25.7970492 C138.622623,25.7970492 118.304262,46.6583607 118.304262,72.5016393 C118.304262,99.742623 139.478361,119.202295 165.475082,119.202295 C191.475738,119.202295 212.56918,99.742623 212.56918,72.5016393 C212.56918,46.657377 192.330492,25.7970492 165.475082,25.7970492 L165.475082,25.7970492 Z M165.475082,94.5285246 C153.879344,94.5285246 144.380656,84.6422951 144.380656,72.5006557 C144.380656,60.2783607 153.879344,50.4718033 165.475082,50.4718033 C177.07377,50.3931148 186.569508,60.2793443 186.569508,72.5006557 C186.569508,84.6442623 177.07377,94.5285246 165.475082,94.5285246 L165.475082,94.5285246 Z M283.503934,86.5072131 C274.472459,86.5072131 267.158361,93.8232787 267.158361,102.85377 C267.158361,111.882295 274.474426,119.198361 283.503934,119.198361 C292.533443,119.198361 299.848525,111.882295 299.848525,102.85377 C299.848525,93.8232787 292.533443,86.5072131 283.503934,86.5072131 Z M226.580656,0.109180328 L252.267541,0.109180328 L252.267541,116.08623 L226.580656,116.08623 L226.580656,0.109180328 Z M47.5495082,0.109180328 L0.845901639,116.08623 L33.5390164,116.08623 L38.9872131,99.742623 L79.4636066,99.742623 L84.9118033,116.08623 L117.604918,116.08623 L71.6793443,0.109180328 L47.5495082,0.109180328 L47.5495082,0.109180328 Z M47.5495082,75.6137705 L59.6154098,36.6934426 L71.6803279,75.6137705 L47.5495082,75.6137705 Z" id="Shape"></path>
            </g>
        </g>
    </g>
</svg>