<svg width="300px" height="87px" viewBox="0 0 300 87" version="1.1" xmlns="http://www.w3.org/2000/svg" xmlns:xlink="http://www.w3.org/1999/xlink">
    <g id="Trustmarks" stroke="none" stroke-width="1" fill="none" fill-rule="evenodd" fill-opacity="0.6">
        <g id="Grey" transform="translate(0.000000, -945.000000)" fill="#0C121C" fill-rule="nonzero">
            <g id="BBDO_logo-Copy" transform="translate(0.000000, 945.000000)">
                <path d="M287.421639,13.2206557 C279.621639,5.48557377 268.614098,0.728852459 255.903934,0.733770492 C243.203607,0.729836066 232.135082,5.5495082 224.284918,13.3318033 C219.400328,18.1681967 215.756066,24.1514754 213.69541,30.812459 C211.678033,24.3236066 208.100656,18.5695082 203.258361,13.9603279 C195.468197,6.53311475 184.433115,2.09311475 171.544918,2.09704918 L138.736721,2.09704918 L138.736721,51.3481967 C136.567869,46.9219672 132.832131,43.7419672 128.125574,41.4698361 C132.771148,38.0045902 136.445902,32.6754098 136.399672,24.7131148 L136.399672,24.4908197 C136.417377,17.7511475 133.63082,11.9734426 128.669508,8.08032787 C123.720984,4.17836066 116.74623,2.09704918 108.344262,2.09704918 L69.6413115,2.09704918 L69.6413115,51.3442623 C67.472459,46.9180328 63.7367213,43.7380328 59.0340984,41.4688525 C63.6747541,38.0036066 67.3465574,32.6744262 67.3032787,24.7121311 L67.3032787,24.4898361 C67.3239344,17.755082 64.5383607,11.972459 59.5770492,8.08327869 C54.6285246,4.17344262 47.6537705,2.1 39.2478689,2.1 L0.551803279,2.1 L0.551803279,85.1557377 L40.1586885,85.1557377 C49.3514754,85.1518033 57.1416393,83.3144262 62.782623,79.3829508 C65.7806557,77.307541 68.1108197,74.5947541 69.6413115,71.3567213 L69.6413115,85.1557377 L109.253115,85.1557377 C118.444918,85.1518033 126.236066,83.3183607 131.880984,79.3829508 C134.876066,77.3104918 137.205246,74.5986885 138.735738,71.3606557 L138.735738,85.1557377 L171.561639,85.1557377 C184.454754,85.1557377 195.48,80.6557377 203.26623,73.177377 C208.048525,68.5918033 211.590492,62.8868852 213.617705,56.4747541 C215.646885,63.1829508 219.278361,69.1937705 224.167869,74.0360656 C231.967869,81.7662295 242.980328,86.5229508 255.681639,86.5190164 L255.699344,86.5190164 C268.399672,86.5190164 279.464262,81.6983607 287.31541,73.92 C295.169508,66.1416393 299.823934,55.3937705 299.82,43.6288525 L299.82,43.402623 C299.822951,31.6396721 295.228525,20.9468852 287.421639,13.2206557 Z M21.3167213,21.1651814 L36.6452459,21.1652459 C40.0859016,21.157377 42.5596721,21.8704918 44.0301639,22.9347541 C45.4829508,24.0118033 46.162623,25.3111475 46.1921311,27.4308197 L46.1921311,27.6570492 C46.144918,30.0796721 45.3590164,31.3534426 43.6878689,32.4521311 C41.9911475,33.5291803 39.1662295,34.1616393 35.5121311,34.1567213 L21.3167213,34.1567498 L21.3167213,21.1651814 Z M50.6154098,59.3744262 C50.5681967,61.827541 49.7862295,63.1868852 48.1662295,64.3140984 C46.5295082,65.4206557 43.7901639,66.1003279 40.1577049,66.092459 L21.3206557,66.0925266 L21.3206557,52.4261582 L39.5901639,52.4262295 C43.8462295,52.417377 46.6967213,53.2337705 48.3118033,54.387541 C49.915082,55.5501639 50.5770492,56.9439344 50.6154098,59.1481967 L50.6154098,59.3744262 Z M90.4111475,21.1652297 L105.739672,21.1652459 C109.17541,21.1613115 111.659016,21.8754098 113.119672,22.9386885 C114.573443,24.0108197 115.256066,25.315082 115.290492,27.4298361 L115.290492,27.6521311 C115.239344,30.0836066 114.452459,31.3534426 112.777377,32.455082 C111.085574,33.5321311 108.260656,34.1606557 104.610492,34.1478689 L90.4111475,34.1478689 L90.4111475,21.1652297 Z M119.71082,59.3704918 C119.668525,61.827541 118.877705,63.1868852 117.261639,64.3190164 C115.624918,65.4255738 112.890492,66.1013115 109.253115,66.092459 L90.4111475,66.0925449 L90.4111475,52.4261585 L108.680656,52.4262295 C112.937705,52.417377 115.787213,53.2377049 117.403279,54.387541 C119.005574,55.5501639 119.672459,56.9390164 119.71082,59.1481967 L119.71082,59.3704918 Z M193.557049,43.8531148 C193.45082,56.9862295 184.928852,65.5327869 171.543934,65.6360656 L159.959016,65.6360656 L159.959016,21.6186885 L171.543934,21.6186885 C184.894426,21.7170492 193.45377,30.4908197 193.557049,43.6318033 L193.557049,43.8531148 Z M277.809836,43.8531148 C277.749836,56.5495082 268.882623,66.6314754 255.903934,66.6570492 C242.954754,66.6393443 233.826885,56.302623 233.78459,43.6318033 L233.78459,43.4055738 C233.84459,30.7091803 242.711803,20.6272131 255.682623,20.5977049 C268.635738,20.6144262 277.763607,30.9521311 277.81082,43.6318033 L277.81082,43.8531148 L277.809836,43.8531148 Z" id="Shape"></path>
            </g>
        </g>
    </g>
</svg>