<svg width="300px" height="53px" viewBox="0 0 300 53" version="1.1" xmlns="http://www.w3.org/2000/svg" xmlns:xlink="http://www.w3.org/1999/xlink">
    <g id="Trustmarks" stroke="none" stroke-width="1" fill="none" fill-rule="evenodd" fill-opacity="0.6">
        <g id="Grey" transform="translate(0.000000, -563.000000)" fill="#0C121C" fill-rule="nonzero">
            <g id="Brand-logos-Copy" transform="translate(0.000000, 563.000000)">
                <path d="M0,51.7447307 L0,0 L23.0796253,0 C32.9156909,0 37.9742389,6.28805621 37.9742389,13.1733021 C37.9742389,19.6018735 33.9344262,24.028103 29.0515222,25.0468384 C34.6370023,25.8899297 38.9929742,31.264637 38.9929742,37.6932084 C38.9929742,45.5269321 33.8641686,51.7447307 23.9578454,51.7447307 L0,51.7447307 Z M26.7330211,15.1405152 C26.7330211,11.9437939 24.4145199,9.69555035 20.6908665,9.69555035 L11.030445,9.69555035 L11.030445,20.5503513 L20.6908665,20.5503513 C24.4145199,20.5503513 26.7330211,18.4777518 26.7330211,15.1405152 Z M27.7517564,36.147541 C27.7517564,32.8805621 25.4332553,30.2459016 21.147541,30.2459016 L11.030445,30.2459016 L11.030445,42.0491803 L21.1826698,42.0491803 C25.2576112,42.0491803 27.7517564,39.8711944 27.7517564,36.147541 Z" id="Shape"></path>
                <path d="M42.0140515,36.7447307 L42.0140515,14.2622951 L51.9203747,14.2622951 L51.9203747,36.4285714 C51.9203747,40.8899297 54.6252927,44.1217799 59.8946136,44.1217799 C65.0936768,44.1217799 67.8337237,40.8899297 67.8337237,36.4285714 L67.8337237,14.2622951 L77.704918,14.2622951 L77.704918,36.7096019 C77.704918,46.1241218 72.0491803,52.7283372 59.9297424,52.7283372 C47.8103044,52.7283372 42.0140515,46.0538642 42.0140515,36.7447307 Z" id="Path"></path>
                <polygon id="Path" points="80.971897 51.7447307 80.971897 44.3676815 97.8688525 22.8688525 80.971897 22.8688525 80.971897 14.2622951 111.288056 14.2622951 111.288056 21.323185 94.0749415 43.1381733 111.604215 43.1381733 111.604215 51.7447307"></polygon>
                <polygon id="Path" points="114.836066 51.7447307 114.836066 44.3676815 131.733021 22.8688525 114.836066 22.8688525 114.836066 14.2622951 145.152225 14.2622951 145.152225 21.323185 127.93911 43.1381733 145.468384 43.1381733 145.468384 51.7447307"></polygon>
                <polygon id="Path" points="149.156909 51.7447307 149.156909 0 185.058548 0 185.058548 9.69555035 160.187354 9.69555035 160.187354 20.5503513 178.911007 20.5503513 178.911007 30.2459016 160.187354 30.2459016 160.187354 51.7447307"></polygon>
                <path d="M181.686183,32.9859485 C181.686183,22.1311475 189.765808,13.3489461 201.077283,13.3489461 C212.318501,13.3489461 219.836066,21.7447307 219.836066,33.8992974 L219.836066,36.2177986 L191.978923,36.2177986 C192.681499,40.7845433 196.405152,44.6135831 202.763466,44.6135831 C205.960187,44.6135831 210.28103,43.2786885 212.704918,40.9601874 L217.131148,47.4941452 C213.407494,50.9016393 207.505855,52.6932084 201.709602,52.6932084 C190.29274,52.6932084 181.686183,45 181.686183,32.9859485 Z M201.077283,21.4285714 C194.964871,21.4285714 192.295082,25.6791569 191.908665,29.4028103 L210.386417,29.4028103 C210.070258,25.8196721 207.576112,21.4285714 201.077283,21.4285714 Z" id="Shape"></path>
                <path d="M222.505855,32.9859485 C222.505855,22.1311475 230.58548,13.3489461 241.896956,13.3489461 C253.138173,13.3489461 260.655738,21.7447307 260.655738,33.8992974 L260.655738,36.2177986 L232.798595,36.2177986 C233.501171,40.7845433 237.224824,44.6135831 243.583138,44.6135831 C246.779859,44.6135831 251.100703,43.2786885 253.52459,40.9601874 L257.95082,47.4941452 C254.227166,50.9016393 248.325527,52.6932084 242.529274,52.6932084 C231.112412,52.6932084 222.505855,45 222.505855,32.9859485 Z M241.896956,21.4285714 C235.784543,21.4285714 233.114754,25.6791569 232.728337,29.4028103 L251.206089,29.4028103 C250.88993,25.8196721 248.395785,21.4285714 241.896956,21.4285714 Z" id="Shape"></path>
                <path d="M264.274005,51.8149883 L264.274005,14.1920375 L279.379391,14.1920375 C291.217799,14.1920375 299.754098,21.2880562 299.754098,32.9859485 C299.754098,44.6487119 291.252927,51.8149883 279.449649,51.8149883 L264.274005,51.8149883 Z M290.163934,32.9859485 C290.163934,27.1545667 286.651054,22.3067916 279.765808,22.3067916 L273.653396,22.3067916 L273.653396,43.7002342 L279.765808,43.7002342 C286.334895,43.7002342 290.163934,38.5714286 290.163934,32.9859485 Z" id="Shape"></path>
            </g>
        </g>
    </g>
</svg>