<svg width="299px" height="108px" viewBox="0 0 299 108" version="1.1" xmlns="http://www.w3.org/2000/svg" xmlns:xlink="http://www.w3.org/1999/xlink">
    <g id="Trustmarks" stroke="none" stroke-width="1" fill="none" fill-rule="evenodd" fill-opacity="0.6">
        <g id="Grey" transform="translate(0.000000, -200.000000)" fill="#0C121C" fill-rule="nonzero">
            <g id="Capital_One_logo-Copy" transform="translate(0.000000, 200.000000)">
                <path d="M202.590866,77.4955478 C202.574045,77.5123687 202.557224,77.5123687 202.557224,77.5291896 C189.840627,86.5283687 174.785925,95.9817119 158.587403,105.90604 L157.948209,106.2761 C157.729537,106.427488 157.679075,106.730264 157.830463,106.948936 C157.981851,107.167607 158.284627,107.21807 158.503299,107.066682 L159.041567,106.780727 C172.784239,99.6150254 188.562239,91.1036522 204.441164,82.3736075 C204.525269,82.3231448 204.609373,82.2726821 204.693478,82.2390403 C203.818791,80.7924433 203.095493,79.2112791 202.590866,77.4955478 L202.590866,77.4955478 Z M286.022507,9.95965224 C265.988821,-12.1430045 137.056657,7.73929403 82.2373582,19.7157716 L80.9589701,19.984906 C80.6898358,20.0353687 80.5216269,20.2876821 80.5720896,20.5399955 C80.6225522,20.8091299 80.8748657,20.9773388 81.1271791,20.9268761 L82.3887463,20.6745627 C127.805164,12.5837119 222.271313,1.38099552 242.590955,21.5324284 C248.797866,27.6888761 247.317627,35.594697 240.118284,44.9471149 C243.98709,47.4366075 246.745716,51.3558761 247.990463,56.2507567 C276.081358,37.6132045 294.937582,19.7998761 286.022507,9.95965224 L286.022507,9.95965224 Z" id="Shape"></path>
                <g id="Group" transform="translate(0.000000, 43.734328)">
                    <path d="M210.698537,27.9580104 C210.950851,35.7292642 215.879373,42.1043836 222.288134,42.1043836 C234.718776,42.1043836 240.017358,26.8310104 239.647299,16.6375478 C239.378164,8.84947313 234.331896,2.49117463 227.923134,2.49117463 C217.241866,2.47435373 210.328478,17.6804433 210.698537,27.9580104 L210.698537,27.9580104 Z M204.138388,27.5374881 C203.684224,14.2658015 214.079537,0.691338806 229.184701,0.691338806 C239.277239,0.691338806 245.887851,7.41969701 246.25791,17.730906 C246.745716,31.725891 237.023239,44.5770552 221.228418,44.5770552 C211.102239,44.5770552 204.491627,37.8655179 204.138388,27.5374881 L204.138388,27.5374881 Z" id="Shape"></path>
                    <path d="M61.0817179,24.0387418 C60.5434493,24.2405925 59.8537925,24.4424433 58.979106,24.6274731 C58.1212403,24.8293239 56.5400761,25.0984582 54.2524343,25.4685179 C52.6712701,25.7208313 51.5779119,26.0404284 50.9555388,26.4945925 C50.3668075,26.9319358 50.0135687,27.4533836 49.9126433,28.1093985 C49.794897,28.7990552 50.0135687,29.3373239 50.6023,29.7746672 C51.2078522,30.1951896 52.217106,30.4138612 53.6468821,30.4138612 C54.7234194,30.4138612 55.7663149,30.2456522 56.7755687,29.9092343 C57.8016433,29.5728164 58.6763299,29.1186522 59.3323448,28.5467418 C59.8201507,28.1262194 60.1733896,27.5879507 60.4425239,26.9319358 C60.6107328,26.4945925 60.8294045,25.5358015 61.0817179,24.0387418 L61.0817179,24.0387418 Z M74.2020164,15.8806075 C74.1515537,17.0917119 73.9328821,18.1682493 73.6132851,20.0353687 L71.3929269,32.4996522 C71.207897,33.6098313 71.6115985,34.467697 72.6376731,35.0732493 L72.5703896,35.5610552 L59.8537925,35.5442343 L59.7360463,32.381906 C57.8857478,33.4920851 55.6485687,34.4340552 53.6300612,34.9891448 C51.6115537,35.5105925 49.9799269,35.7292642 47.540897,35.7292642 C43.4365985,35.7292642 41.0816731,35.3087418 39.4500463,33.8789657 C37.8015985,32.4155478 36.9941955,31.4399358 37.0783,29.4214284 C37.1455836,28.2607866 37.7511358,26.7637269 38.6090015,25.7208313 C39.4836881,24.6611149 40.6947925,23.9714582 41.9900015,23.3490851 C43.3020313,22.7267119 44.8495537,22.2725478 47.0867328,21.919309 C49.3407328,21.5492493 52.4694194,21.1960104 56.6578224,20.8427716 C58.8613597,20.6577418 60.2070313,20.1531149 60.8294045,19.9008015 C61.704091,19.5643836 62.0573299,19.177503 62.1750761,18.4710254 C62.4105687,17.1926373 62.0068672,16.4525179 60.2911358,16.1161 C55.7158522,15.2077716 47.1203746,16.7048313 42.6964791,17.7981896 L45.1018672,11.3053239 C50.9387179,10.4474582 56.405509,9.90918955 62.1750761,9.90918955 C71.376106,9.90918955 74.3029418,12.5164284 74.2020164,15.8806075 L74.2020164,15.8806075 Z" id="Shape"></path>
                    <path d="M111.073419,35.5442343 L115.480494,10.6324881 L127.658822,10.6324881 L123.251748,35.5442343 L111.073419,35.5442343 Z M116.15333,4.8629209 C116.52339,2.81077164 119.753001,1.16232388 123.352673,1.16232388 C126.969166,1.16232388 129.610046,2.82759254 129.256807,4.8629209 C128.869927,6.91507015 125.657136,8.58033881 122.023822,8.58033881 C118.424151,8.58033881 115.800091,6.91507015 116.15333,4.8629209 L116.15333,4.8629209 Z" id="Shape"></path>
                    <path d="M170.900299,24.0892045 C170.345209,24.2742343 169.638731,24.4760851 168.780866,24.6779358 C167.923,24.8797866 166.341836,25.1321 164.054194,25.5021597 C162.489851,25.7544731 161.379672,26.0740701 160.774119,26.5282343 C160.185388,26.9487567 159.84897,27.4870254 159.714403,28.1262194 C159.579836,28.8158761 159.832149,29.3709657 160.40406,29.7914881 C161.026433,30.2120104 162.035687,30.4138612 163.465463,30.4138612 C164.525179,30.4138612 165.568075,30.2624731 166.594149,29.9428761 C167.637045,29.5896373 168.49491,29.152294 169.167746,28.5803836 C169.638731,28.1598612 169.99197,27.6047716 170.244284,26.9655776 C170.412493,26.5450552 170.631164,25.5862642 170.900299,24.0892045 L170.900299,24.0892045 Z M184.020597,15.9142493 C183.970134,17.1421746 183.751463,18.2187119 183.415045,20.0690104 L181.211507,32.5501149 C181.026478,33.6434731 181.430179,34.5181597 182.456254,35.1237119 L182.38897,35.5610552 L169.672373,35.5778761 L169.571448,32.3987269 C167.721149,33.5257269 165.467149,34.467697 163.465463,35.0059657 C161.446955,35.5442343 159.815328,35.762906 157.342657,35.762906 C153.238358,35.762906 150.900254,35.3592045 149.268627,33.9126075 C147.603358,32.4323687 146.812776,31.4735776 146.896881,29.4550701 C146.947343,28.2776075 147.552896,26.7805478 148.427582,25.7544731 C149.302269,24.6779358 150.513373,24.0051 151.825403,23.3827269 C153.137433,22.7603537 154.684955,22.3061896 156.905313,21.9361299 C159.159313,21.582891 162.304821,21.2128313 166.493224,20.8595925 C168.67994,20.6745627 170.025612,20.1867567 170.647985,19.9344433 C171.539493,19.5980254 171.87591,19.2111448 172.010478,18.4878463 C172.229149,17.2262791 171.842269,16.4861597 170.143358,16.1329209 C165.534433,15.2245925 156.972597,16.7216522 152.548701,17.8150104 L154.937269,11.3221448 C160.79094,10.4642791 166.24091,9.92601045 172.010478,9.92601045 C181.177866,9.94283134 184.104701,12.566891 184.020597,15.9142493 L184.020597,15.9142493 Z" id="Shape"></path>
                    <path d="M35.4298522,26.5955179 C31.4601209,27.3861 29.2397627,27.6888761 25.320494,27.6888761 C19.5004642,27.6888761 14.8747179,24.7956821 15.1270313,19.4971 C15.3120612,15.9647119 19.4836433,8.52987612 30.0976284,8.52987612 C33.4449866,8.52987612 36.0522254,9.11860746 39.5677925,11.120294 L41.1153149,2.47435373 C36.3381806,0.67451791 33.1758522,0.405383582 29.0715537,0.439025373 C15.1438522,0.590413433 1.78806119,6.91507015 0.122792537,19.7830552 C-1.55929701,32.852891 14.4037328,36.1329657 21.4853299,36.0993239 C25.5728075,36.082503 29.828494,35.914294 33.7982254,35.5105925 L35.4298522,26.5955179 Z" id="Path"></path>
                    <path d="M134.37036,10.4979209 L135.245046,5.41801045 L147.978464,2.64256269 L146.615972,10.4811 L152.856524,10.4811 L151.679061,15.4937269 L145.623539,15.476906 L141.939763,35.5105925 C141.939763,35.5105925 129.67733,35.4264881 129.626867,35.5105925 L133.293822,15.5273687 L128.684897,15.5273687 L129.626867,10.4811 L134.37036,10.4811 L134.37036,10.4979209 Z" id="Path"></path>
                    <polygon id="Path" points="202.310467 1.12799087 196.389512 35.5267222 183.992512 35.5435431 190.233064 0.791572958"></polygon>
                    <path d="M94.9590015,16.4693388 C93.3610164,16.4693388 91.9144194,16.9571448 90.6360313,17.9159358 C89.3576433,18.8915478 88.5502403,20.304503 88.2306433,22.1716224 C87.8437627,24.3415179 88.0792552,25.9058612 88.9371209,26.8646522 C89.8118075,27.8234433 91.0565537,28.3112493 92.7050015,28.3112493 C93.8151806,28.3112493 94.9590015,28.1093985 95.8000463,27.6888761 C96.8429418,27.1337866 97.5662403,26.5618761 98.1886134,25.6367269 C98.8614493,24.6779358 99.2987925,23.6013985 99.5342851,22.3566522 C99.8875239,20.3886075 99.5847478,18.9251896 98.6764194,17.9495776 C97.7849119,16.9739657 96.5569866,16.4693388 94.9590015,16.4693388 L94.9590015,16.4693388 Z M72.7890612,44.1397119 L78.7268373,10.7670552 L89.4249269,10.7670552 L88.600703,15.0227418 C89.5258522,13.7443537 91.006091,12.7014582 93.0582403,11.8604134 C95.1272104,11.0193687 97.448494,10.3969955 99.9716284,10.3969955 C102.763897,10.3969955 104.479628,10.5483836 106.565419,11.6249209 C108.63439,12.7182791 110.097807,14.2994433 110.871569,16.3515925 C111.678972,18.3701 111.847181,20.6577418 111.409837,23.1304134 C110.686539,27.2515328 108.684852,30.4811448 105.387957,32.8697119 C102.124703,35.2582791 99.1810463,35.8806522 94.9926433,35.8974731 C93.5124045,35.8974731 92.2676582,35.7460851 91.2415836,35.4937716 C90.2323299,35.2246373 89.4249269,34.9050403 88.8193746,34.5181597 C88.2306433,34.1312791 87.6082701,33.5761896 86.8176881,32.701503 L84.8328224,44.1397119 L72.7890612,44.1397119 Z" id="Shape"></path>
                    <path d="M293.844224,19.5307418 C293.77694,17.5290552 292.767687,16.1665627 290.698716,16.1665627 C285.70291,16.1665627 280.387507,25.9563239 279.479179,29.8924568 C287.670955,29.9092343 294.046075,25.0311746 293.844224,19.5307418 L293.844224,19.5307418 Z M294.920761,34.8713985 L295.879552,35.5274134 C293.440522,40.4895776 288.478358,44.4761299 282.658328,44.4761299 C277.898015,44.4761299 273.978746,41.2969806 273.776896,35.3423836 C273.390015,24.6611149 283.398448,14.7536075 291.590224,14.7536075 C295.105791,14.7536075 298.369045,16.284309 298.503612,20.0690104 C298.806388,28.5635627 286.880373,31.1539806 279.025015,31.3390104 C278.772701,32.2305179 278.671776,33.1220254 278.722239,34.467697 C278.856806,37.9832642 280.976239,40.9437418 285.383313,40.9437418 C289.184836,40.9437418 292.986358,37.8823388 294.920761,34.8713985 L294.920761,34.8713985 Z" id="Shape"></path>
                    <path d="M246.072881,19.2616075 C246.913925,19.1438612 248.276418,18.9924731 248.865149,18.9924731 C249.756657,18.9924731 250.597701,19.1606821 250.648164,20.0521896 C250.664985,20.5736373 249.723015,24.3583388 249.521164,25.2330254 L247.620403,33.6098313 C246.846642,37.041294 246.022418,40.6241448 245.282299,43.4668761 L250.160358,43.4668761 L252.902164,30.1951896 C261.262149,21.4819657 264.491761,18.6392343 266.459806,18.6392343 C267.351313,18.6392343 267.956866,19.1102194 268.007328,20.1699358 C268.057791,21.7006373 267.099,25.1825627 266.779403,26.1918164 L263.987134,35.8638313 C263.34794,38.0337269 262.876955,40.0017716 262.927418,41.397906 C263.011522,43.5173388 264.28991,44.459309 266.207493,44.459309 C269.773522,44.459309 272.36394,40.741891 274.61794,37.0917567 L273.961925,35.8974731 C273.053597,37.360891 270.934164,40.5736821 269.268896,40.5736821 C268.747448,40.5736821 268.242821,40.2204433 268.226,39.3457567 C268.175537,38.2187567 268.646522,36.5198463 268.98294,35.3928463 L272.094806,24.0555627 C272.935851,20.9268761 273.322731,18.9251896 273.30591,17.8486522 C273.221806,15.7292194 271.993881,14.7367866 270.093119,14.7367866 C266.880328,14.7367866 262.624642,17.0917119 253.591821,27.4702045 L253.457254,27.4702045 L254.601075,22.4071149 C255.223448,19.6316672 255.829,16.7384731 256.40091,14.7367866 C253.272224,15.8637866 248.797866,17.1253537 246.039239,17.6636224 L246.072881,19.2616075 Z" id="Path"></path>
                </g>
            </g>
        </g>
    </g>
</svg>