<svg width="300px" height="121px" viewBox="0 0 300 121" version="1.1" xmlns="http://www.w3.org/2000/svg" xmlns:xlink="http://www.w3.org/1999/xlink">
    <g id="Trustmarks" stroke="none" stroke-width="1" fill="none" fill-rule="evenodd">
        <g id="Grey" transform="translate(0.000000, -1589.000000)" fill-rule="nonzero">
            <g id="Marvel_logo-Copy" transform="translate(0.000000, 1589.000000)">
                <rect id="Rectangle" fill-opacity="0.6" fill="#0C121C" x="0.242757243" y="0.117482517" width="299.7003" height="120.621279"></rect>
                <path d="M253.865035,28.226973 L253.865035,9.76453546 L202.490709,9.76453546 L194.041858,71.4437562 L185.681419,9.76483516 L167.154845,9.76483516 L169.23027,26.2228771 C167.09041,22.0066933 159.505295,9.76483516 142.812887,9.76483516 C142.702897,9.75764236 124.261139,9.76483516 124.261139,9.76483516 L124.19011,99.6671329 L110.686513,9.76483516 L86.4230769,9.75074925 L72.4534466,102.901798 L72.4606394,9.76423576 L49.238961,9.76423576 L40.8674326,62.0874126 L32.7131868,9.76483516 L9.48401598,9.76483516 L9.48401598,111.035365 L27.7765235,111.035365 L27.7765235,62.2231768 L36.0974026,111.034166 L45.8223776,111.034166 L54.0263736,62.2231768 L54.0263736,111.034166 L89.2912088,111.034166 L91.4310689,95.4512488 L105.629071,95.4512488 L107.761738,111.034166 L142.383417,111.055445 L142.411588,111.055445 L142.411588,111.034166 L142.433167,111.034166 L142.454745,111.034166 L142.454745,78.1615385 L146.699101,77.5432567 L155.486014,111.055445 L155.507592,111.055445 L173.372727,111.055445 L173.393706,111.055445 L173.386513,111.034166 L173.418282,111.034166 L173.43986,111.034166 L161.908891,71.7563437 C167.752448,67.4340659 174.35035,56.4575425 172.594406,45.9569431 L172.594406,45.95005 C172.615385,46.0921079 183.478322,111.098901 183.478322,111.098901 L204.776523,111.034166 L219.32967,19.2407592 L219.32967,111.034466 L253.865934,111.034466 L253.865934,92.8207792 L237.472328,92.8207792 L237.472328,69.5952048 L253.865934,69.5952048 L253.865934,51.1042957 L237.472328,51.1042957 L237.472328,28.226973 L253.865035,28.226973 Z M93.5859141,79.3921079 L98.6082917,36.0971029 L103.823077,79.3921079 L93.5859141,79.3921079 Z M146.758442,59.4008991 C145.350749,60.0836164 143.882817,60.424975 142.453846,60.424975 L142.453846,27.8502498 C142.478721,27.8502498 142.507493,27.8436563 142.542857,27.8436563 C143.975425,27.8364635 154.656444,28.277023 154.656444,43.9597403 C154.656444,52.1634366 151.023776,57.3323676 146.758442,59.4008991 L146.758442,59.4008991 Z M290.722478,92.8066933 L290.722478,111.02008 L257.031968,111.02008 L257.031968,9.75074925 L275.171628,9.75074925 L275.171628,92.8066933 L290.722478,92.8066933 Z" id="Shape" fill="#FFFFFF"></path>
            </g>
        </g>
    </g>
</svg>